<svg xmlns="http://www.w3.org/2000/svg" width="266.711" height="266.649" viewBox="0 0 266.711 266.649">
  <defs>
    <style>
      .cls-1 {
        fill: #f6f6f4;
      }

      .cls-2 {
        fill: #222a35;
        stroke: #90bfdc;
        stroke-width: 4.68px;
        fill-rule: evenodd;
      }
    </style>
  </defs>
  <rect id="ControllerButtonBG2" class="cls-1" x="82.371" y="28.309" width="53" height="52" rx="10" ry="10"/>
  <rect id="ControllerButtonBG1" class="cls-1" x="159.371" y="108.309" width="76" height="74" rx="10" ry="10"/>
  <path id="Controller" class="cls-2" d="M404.521,291.434c-12.713-23.371-28.477-18.948-53.713-44.189s-20.764-41.038-44.176-53.719c-23.372-12.721-51.247-2.865-95.189,24.009C167.46,244.449,143.422,271.6,148.7,286.414s27.55,15.217,51.863,12.535c19.339-1.808,24.4,1.892,60.486,37.984,36.046,36.053,39.5,40.071,37.966,60.487-2.694,24.305-2.3,46.57,12.513,51.853s41.987-18.734,68.931-62.69C407.362,342.668,417.154,314.806,404.521,291.434ZM238.664,256.619a22.432,22.432,0,1,1,31.661-.06A22.367,22.367,0,0,1,238.664,256.619Zm80.989,64.9a10.99,10.99,0,1,1,15.57.03A11,11,0,0,1,319.653,321.52Zm-0.032,33.938a10.99,10.99,0,1,1,15.569.03A11,11,0,0,1,319.621,355.458Zm34.02-33.993a10.99,10.99,0,1,1,15.57.029A11,11,0,0,1,353.641,321.465Zm-0.032,34.018a10.99,10.99,0,1,1,15.53-.011A10.966,10.966,0,0,1,353.609,355.483Z" transform="translate(-145.629 -185.691)"/>
</svg>
