<?xml version="1.0" encoding="utf-8"?>
<!-- Generator: Adobe Illustrator 23.0.3, SVG Export Plug-In . SVG Version: 6.00 Build 0)  -->
<svg version="1.1" id="Layer_1" xmlns="http://www.w3.org/2000/svg" xmlns:xlink="http://www.w3.org/1999/xlink" x="0px" y="0px"
	 viewBox="0 0 121 118" style="enable-background:new 0 0 121 118;" xml:space="preserve">
<style type="text/css">
	.st0{fill-rule:evenodd;clip-rule:evenodd;fill:#191717;}
	.st1{fill:#191717;}
</style>
<title>Asset 1</title>
<g>
	<g id="Layer_1-2">
		<path class="st0" d="M60.5,0.1c-33.4,0-60.4,27-60.4,60.4c0,26,16.6,49.1,41.3,57.3c3,0.6,4.1-1.3,4.1-2.9c0-1.4,0-6.2-0.1-11.2
			c-16.8,3.7-20.3-7.1-20.3-7.1c-2.8-7-6.7-8.8-6.7-8.8c-5.5-3.8,0.4-3.7,0.4-3.7c6.1,0.4,9.3,6.2,9.3,6.2c5.4,9.2,14.1,6.6,17.6,5
			c0.5-3.9,2.1-6.6,3.8-8.1C36.1,85.7,22,80.5,22,57.3c-0.1-6,2.1-11.8,6.2-16.2c-0.6-1.5-2.7-7.7,0.6-16c0,0,5.1-1.6,16.6,6.2
			c9.9-2.7,20.3-2.7,30.3,0c11.5-7.8,16.6-6.2,16.6-6.2c3.3,8.3,1.2,14.5,0.6,16c4.1,4.4,6.3,10.2,6.2,16.2
			c0,23.2-14.1,28.3-27.6,29.8c2.2,1.9,4.1,5.6,4.1,11.2c0,8.1-0.1,14.6-0.1,16.6c0,1.6,1.1,3.5,4.1,2.9
			c31.6-10.6,48.7-44.8,38.1-76.4C109.5,16.7,86.5,0.1,60.5,0.1z"/>
		<path class="st1" d="M23,86.8c-0.1,0.3-0.6,0.4-1,0.2s-0.7-0.6-0.5-0.9s0.6-0.4,1-0.2S23.1,86.5,23,86.8L23,86.8z"/>
		<path class="st1" d="M25.5,89.5c-0.3,0.3-0.9,0.1-1.2-0.3c-0.4-0.3-0.5-0.9-0.2-1.3c0.3-0.3,0.8-0.1,1.2,0.3S25.8,89.3,25.5,89.5z
			"/>
		<path class="st1" d="M27.8,93c-0.4,0.3-1,0-1.4-0.5s-0.4-1.2,0-1.4s1,0,1.4,0.5S28.2,92.8,27.8,93z"/>
		<path class="st1" d="M31.1,96.4c-0.5,0.4-1.2,0.3-1.6-0.3c0,0,0,0,0,0c-0.5-0.5-0.7-1.2-0.3-1.5s1-0.3,1.6,0.2S31.4,96,31.1,96.4
			L31.1,96.4z"/>
		<path class="st1" d="M35.6,98.3c-0.2,0.5-0.8,0.7-1.5,0.5s-1.1-0.8-1-1.2s0.8-0.7,1.5-0.5S35.7,97.8,35.6,98.3z"/>
		<path class="st1" d="M40.5,98.7c0,0.5-0.6,0.9-1.3,0.9s-1.3-0.4-1.3-0.9s0.6-0.9,1.3-0.9S40.5,98.2,40.5,98.7z"/>
		<path class="st1" d="M45.1,97.9c0.1,0.5-0.4,1-1.1,1.1s-1.3-0.2-1.4-0.7s0.4-1,1.1-1.1S45,97.4,45.1,97.9z"/>
	</g>
</g>
</svg>
